<?xml version="1.0" encoding="UTF-8" standalone="no"?>
<!-- Created with Inkscape (http://www.inkscape.org/) -->

<svg
   width="30.659454mm"
   height="44.134212mm"
   viewBox="0 0 30.659454 44.134212"
   version="1.1"
   id="svg5"
   xml:space="preserve"
   inkscape:version="1.2.2 (b0a8486541, 2022-12-01)"
   sodipodi:docname="yourtrace_info.svg"
   xmlns:inkscape="http://www.inkscape.org/namespaces/inkscape"
   xmlns:sodipodi="http://sodipodi.sourceforge.net/DTD/sodipodi-0.dtd"
   xmlns:xlink="http://www.w3.org/1999/xlink"
   xmlns="http://www.w3.org/2000/svg"
   xmlns:svg="http://www.w3.org/2000/svg"><sodipodi:namedview
     id="namedview7"
     pagecolor="#ffffff"
     bordercolor="#eeeeee"
     borderopacity="1"
     inkscape:showpageshadow="0"
     inkscape:pageopacity="0"
     inkscape:pagecheckerboard="0"
     inkscape:deskcolor="#505050"
     inkscape:document-units="mm"
     showgrid="false"
     inkscape:zoom="4.1991718"
     inkscape:cx="47.390297"
     inkscape:cy="69.180309"
     inkscape:window-width="1920"
     inkscape:window-height="1080"
     inkscape:window-x="0"
     inkscape:window-y="0"
     inkscape:window-maximized="1"
     inkscape:current-layer="g1394" /><defs
     id="defs2"><linearGradient
       inkscape:collect="always"
       id="linearGradient12725"><stop
         style="stop-color:#2275e8;stop-opacity:1;"
         offset="0.62830037"
         id="stop12721" /><stop
         style="stop-color:#145493;stop-opacity:1;"
         offset="1"
         id="stop12723" /></linearGradient><linearGradient
       inkscape:collect="always"
       xlink:href="#linearGradient12725"
       id="linearGradient12727"
       x1="-67.364471"
       y1="386.17499"
       x2="-67.334717"
       y2="401.01443"
       gradientUnits="userSpaceOnUse" /></defs><g
     id="g1394"
     transform="translate(81.883773,-386.07038)"><path
       id="path1560"
       style="fill:#2f78bf;stroke-width:0.264583;fill-opacity:0.45282441"
       d="m -77.518148,404.67822 0.0041,0.005 c 5.25e-4,-6e-5 9.5e-4,-4.5e-4 0.0016,-5.1e-4 z" /><path
       style="fill:#f1f5f9;stroke-width:0.264583"
       d="m -74.144797,402.76002 c 4.183724,-0.0409 11.029817,-0.0409 15.213541,0 4.183724,0.0409 0.760677,0.0744 -7.606771,0.0744 -8.367447,0 -11.790494,-0.0335 -7.60677,-0.0744 z"
       id="path1558" /><path
       id="path1542"
       style="fill:#2f78bf;stroke-width:0.264583;fill-opacity:0.45282441"
       d="m -67.407137,423.61556 c -10e-4,0.005 -0.0019,0.0111 -0.0031,0.0165 0.0018,-0.005 0.0035,-0.0107 0.0052,-0.016 -7.12e-4,-2.1e-4 -0.0013,-2.8e-4 -0.0021,-5.2e-4 z m -0.05788,0.0904 c 2.9e-4,10e-4 0.001,0.002 0.0015,0.003 1.9e-4,0.001 2.27e-4,-5.7e-4 5.17e-4,-10e-4 -8e-4,-7.6e-4 -0.0013,-0.001 -0.0021,-0.002 z" /><path
       id="path1524"
       style="fill:#789bc4;stroke-width:0.264583"
       d="m -66.53794,401.67116 c -2.757451,0 -5.514911,0.01 -7.606771,0.0305 -4.183719,0.0409 -0.760667,0.0744 7.606771,0.0744 8.36744,0 11.790491,-0.0335 7.606771,-0.0744 -2.09186,-0.0204 -4.849319,-0.0305 -7.606771,-0.0305 z" /><path
       id="path1476"
       style="fill:#1a6bbb;stroke-width:0.264583"
       d="m -75.487264,398.33959 c -0.0032,1.2e-4 -0.0048,7.9e-4 -0.0078,0.001 1.81e-4,0.002 3.22e-4,0.004 5.17e-4,0.006 0.0198,0.002 0.03326,0.003 0.05478,0.004 -0.0053,-0.01 -0.0278,-0.0121 -0.04754,-0.0114 z" /><path
       id="path1466"
       style="fill:#1760a9;stroke-width:0.264583"
       d="m -74.402576,401.3301 c -0.003,7.9e-4 0.0072,0.003 0.01964,0.006 0.0054,-2.4e-4 0.02102,-9.3e-4 0.01602,-5.1e-4 -0.03212,0.002 -0.06414,0.004 -0.09612,0.006 0.09246,-3.3e-4 0.174925,-5.4e-4 0.271818,-10e-4 -0.05017,-0.004 -0.100539,-0.007 -0.150896,-0.009 -0.0413,-0.001 -0.05748,-0.002 -0.06046,-0.001 z" /><path
       id="path1462"
       style="fill:#165ea4;stroke-width:0.264583"
       d="m -56.637769,401.28773 c -0.06392,7.3e-4 -0.127766,0.002 -0.191203,0.008 -0.01062,0.001 -0.02393,0.008 -0.03721,0.0155 0.083,-0.007 0.162564,-0.0149 0.22841,-0.0232 z m -1.140499,0.0667 c -0.0393,9.6e-4 -0.07841,0.004 -0.117305,0.008 0.07445,-0.002 0.152087,-0.003 0.222725,-0.006 -0.03518,-10e-4 -0.07016,-0.003 -0.10542,-0.002 z m -17.182413,0.5457 c -5.758736,0 -6.923092,0.0623 -6.923092,0.37052 0,0.25675 0.263954,0.34782 0.859896,0.29662 0.472941,-0.0406 3.538808,-0.16249 6.813021,-0.27078 3.274211,-0.10829 6.002565,-0.24172 6.063195,-0.29662 0.06063,-0.0549 -3.005235,-0.0997 -6.81302,-0.0997 z" /><path
       style="fill:#2f78bf;stroke-width:0.264583;fill-opacity:0.45282441"
       d="m -77.981255,403.03615 c 0.327421,-0.0631 0.863203,-0.0631 1.190624,0 0.327422,0.0631 0.05953,0.11466 -0.595312,0.11466 -0.654844,0 -0.922734,-0.0516 -0.595312,-0.11466 z m -2.579688,-0.41002 c 0.346686,-0.35217 29.660571,-0.96773 29.333914,-0.61598 -0.09192,0.099 -1.044419,0.23231 -2.116666,0.29628 -3.080486,0.1838 -27.364264,0.46904 -27.217248,0.3197 z"
       id="path1460" /><path
       style="fill:#2f78bf;stroke-width:0.264583;fill-opacity:0.45282441"
       d="m -78.440715,403.62404 c -0.231759,-0.27925 -0.01072,-0.37077 1.110308,-0.45972 1.897451,-0.15055 19.936282,-0.26255 19.780141,-0.12281 -0.06832,0.0611 -2.267344,0.19093 -4.886719,0.28841 -9.657535,0.35941 -11.685582,0.43949 -13.678016,0.54003 -1.466445,0.074 -2.117331,0.005 -2.325714,-0.24591 z m 17.673912,-1.11107 c 0.190995,-0.0764 0.419201,-0.067 0.507119,0.0209 0.08792,0.0879 -0.06835,0.15046 -0.347266,0.13897 -0.308226,-0.0127 -0.370919,-0.0754 -0.159853,-0.15985 z m 0.865407,0.0779 c 0.250936,-0.23408 8.708623,-0.37486 8.565057,-0.14257 -0.08342,0.13498 -2.069486,0.24541 -4.413482,0.24541 -2.344,0 -4.212207,-0.0463 -4.151575,-0.10284 z"
       id="path1458" /><path
       style="fill:#2f78bf;stroke-width:0.264583;fill-opacity:0.45282441"
       d="m -77.770938,404.30043 c -0.09647,-0.15609 -0.07908,-0.29855 0.03865,-0.31657 0.463447,-0.0709 2.827766,-0.17567 8.019261,-0.35527 2.983177,-0.10321 5.753812,-0.22835 6.156966,-0.2781 0.679645,-0.0839 6.458341,-0.20278 7.323555,-0.15071 0.258344,0.0156 0.296349,0.11039 0.116366,0.29037 -0.258381,0.25839 -1.659958,0.34571 -10.421887,0.64934 -2.255573,0.0782 -5.666247,0.2102 -7.579277,0.29343 -2.346119,0.10206 -3.535326,0.0589 -3.653634,-0.13249 z"
       id="path1456" /><path
       id="path1454"
       style="fill:#2f78bf;stroke-width:0.264583;fill-opacity:0.45282441"
       d="m -57.288892,403.81419 c -0.457392,-3.5e-4 -1.109528,0.0235 -2.039152,0.0605 -1.709866,0.068 -5.01386,0.18848 -7.342187,0.26768 -6.302744,0.21442 -10.56292,0.42711 -10.6686,0.53279 -0.05161,0.0516 0.24428,0.27078 0.657324,0.4873 v 5.2e-4 c 0.862635,0.45219 3.252194,0.36025 3.559473,-0.13694 0.148212,-0.24 0.281454,-0.24117 0.56689,-0.004 0.358619,0.29763 4.366335,0.26842 11.044288,-0.0806 1.236923,-0.0647 2.933569,-0.12002 3.770312,-0.12402 1.343322,-0.006 1.521354,-0.0686 1.521354,-0.53641 0,-0.3485 -0.06344,-0.46588 -1.069702,-0.46663 z" /><path
       style="fill:#2f78bf;stroke-width:0.264583;fill-opacity:0.45282441"
       d="m -75.988282,405.88937 c -0.225258,-0.3613 -0.04386,-0.42456 1.346846,-0.46971 1.440489,-0.0468 1.997705,0.15072 2.013633,0.71363 0.0021,0.0728 -0.694635,0.14159 -1.54821,0.15295 -1.143696,0.0152 -1.62043,-0.0892 -1.812269,-0.39687 z m 4.687755,-0.1601 c -0.744852,-0.41775 -0.846664,-0.40122 3.175,-0.51549 0.945886,-0.0269 4.011745,-0.14012 6.813021,-0.25165 3.471907,-0.13824 5.093229,-0.11541 5.093229,0.0717 0,0.59563 0.167981,0.58107 -10.980208,0.95197 -2.630218,0.0875 -3.59523,0.0272 -4.101042,-0.25653 z"
       id="path1450" /><path
       style="fill:#2f78bf;stroke-width:0.264583;fill-opacity:0.45282441"
       d="m -75.469786,406.60252 c 0.11179,-0.33536 1.774386,-0.51585 2.651747,-0.28787 0.862447,0.22412 0.247126,0.49656 -1.264332,0.5598 -1.111645,0.0465 -1.470142,-0.0238 -1.387415,-0.27193 z m 5.492176,-0.20243 c -0.456089,-0.2973 -0.54242,-0.28481 2.778125,-0.40179 1.164167,-0.041 4.051432,-0.14396 6.416146,-0.22876 2.732812,-0.098 4.299479,-0.0598 4.299479,0.10478 0,0.14243 -0.386953,0.2643 -0.859896,0.27081 -0.472943,0.007 -1.51474,0.0578 -2.315104,0.11407 -4.213122,0.296 -9.960417,0.37447 -10.31875,0.14089 z"
       id="path1448" /><path
       id="path1446"
       style="fill:#2f78bf;stroke-width:0.264583;fill-opacity:0.45282441"
       d="m -56.351481,406.12464 -3.307292,0.16123 c -1.819009,0.0888 -4.200261,0.19258 -5.291667,0.23048 -1.091405,0.0378 -2.579688,0.0957 -3.307291,0.12867 l -1.322917,0.0605 1.036112,0.48266 c 0.569774,0.26546 1.165088,0.43289 1.322917,0.37259 0.253042,-0.0966 4.943759,-0.29152 8.393286,-0.34882 0.825425,-0.0137 1.432042,-0.19517 1.852083,-0.55397 z m -16.777271,0.69711 c -0.179449,-0.002 -0.386588,0.007 -0.624768,0.0253 -1.509087,0.11901 -1.649387,0.17884 -1.39423,0.59169 0.160546,0.25974 3.05356,0.42232 3.05356,0.17157 0,-0.55608 -0.256947,-0.77851 -1.034562,-0.78859 z" /><path
       style="fill:#2f78bf;stroke-width:0.264583;fill-opacity:0.45282441"
       d="m -74.820022,408.23753 c -0.122923,-0.47005 0.0078,-0.51674 1.446998,-0.51674 1.364171,0 1.569919,0.0638 1.493491,0.46302 -0.069,0.36042 -0.389654,0.47493 -1.447001,0.51674 -1.150127,0.0455 -1.379071,-0.0255 -1.493488,-0.46302 z m 6.694495,-0.21498 c 0,-0.33683 0.170662,-0.52845 0.463021,-0.51989 1.56636,0.0459 9.973828,-0.3528 10.184434,-0.48296 0.140444,-0.0868 0.05071,0.1545 -0.199398,0.53622 -0.427302,0.65215 -0.58466,0.69502 -2.607132,0.7104 -1.18381,0.009 -3.432305,0.0779 -4.996654,0.15303 -2.720697,0.13073 -2.844271,0.11349 -2.844271,-0.3968 z"
       id="path1444" /><path
       style="fill:#2f78bf;stroke-width:0.264583;fill-opacity:0.45282441"
       d="m -74.74011,409.17377 c 0,-0.21706 0.20836,-0.40115 0.463021,-0.40909 0.254662,-0.008 0.972555,-0.0457 1.595318,-0.0838 0.690515,-0.0423 1.245116,0.0666 1.421458,0.27903 0.230389,0.2776 0.08091,0.35205 -0.735422,0.36628 -0.56352,0.01 -1.411536,0.0684 -1.884479,0.13006 -0.635958,0.083 -0.859896,0.009 -0.859896,-0.28244 z m 6.879167,-0.28652 c 0,-0.2071 0.264525,-0.37725 0.595312,-0.38293 0.327422,-0.006 2.546554,-0.0804 4.931402,-0.16626 2.997991,-0.10789 4.283109,-0.0703 4.164404,0.12175 -0.19612,0.31733 -2.118347,0.51706 -6.582264,0.68394 -2.552465,0.0954 -3.108854,0.0495 -3.108854,-0.2565 z"
       id="path1442" /><path
       style="fill:#2f78bf;stroke-width:0.264583;fill-opacity:0.45282441"
       d="m -74.567832,409.97854 c -0.164869,-0.42964 0.301181,-0.5626 2.232856,-0.63703 1.064697,-0.041 1.574139,0.0575 1.818336,0.35177 0.391268,0.47145 0.462711,0.45172 -2.01898,0.55775 -1.397376,0.0597 -1.932257,-0.012 -2.032212,-0.27249 z m 6.706889,-0.22046 c 0,-0.48758 0.934434,-0.63475 4.365625,-0.68755 1.455208,-0.0224 3.21138,-0.11247 3.902604,-0.20015 0.691224,-0.0877 1.254947,-0.0548 1.25272,0.0731 -0.01416,0.81269 -0.528643,0.9224 -4.980424,1.06197 -3.887084,0.12188 -4.540525,0.0863 -4.540525,-0.24737 z"
       id="path1438" /><path
       style="fill:#2f78bf;stroke-width:0.264583;fill-opacity:0.45282441"
       d="m -74.384084,410.56511 c -0.06747,-0.10917 -0.02635,-0.20215 0.09138,-0.20662 0.117729,-0.004 1.139553,-0.0482 2.270721,-0.0971 1.131167,-0.0489 2.120458,0.0143 2.198428,0.14042 0.07797,0.12616 -0.490345,0.23854 -1.262917,0.24974 -0.772573,0.0112 -1.802988,0.041 -2.28981,0.0662 -0.48682,0.0252 -0.940332,-0.0435 -1.007801,-0.15266 z m 6.878812,-0.26463 c -0.06727,-0.10914 0.450255,-0.2026 1.150067,-0.20768 0.699812,-0.005 2.075183,-0.0399 3.056374,-0.0774 0.981194,-0.0375 1.695569,0.0161 1.5875,0.11922 -0.27065,0.25814 -5.642274,0.41193 -5.793941,0.16589 z m 6.258912,-0.15564 c 0,-0.1229 0.618151,-0.24534 1.373669,-0.27208 0.75552,-0.0267 1.31886,0.006 1.251868,0.0732 -0.237792,0.23779 -2.625537,0.41867 -2.625537,0.19889 z"
       id="path1436" /><path
       style="fill:#2f78bf;stroke-width:0.264583;fill-opacity:0.45282441"
       d="m -74.475526,411.11248 c 0,-0.30507 0.51872,-0.39646 2.513541,-0.44281 1.59771,-0.0371 2.513542,0.0416 2.513542,0.21615 0,0.15203 -0.573905,0.27455 -1.285989,0.27455 -0.707292,0 -1.838386,0.0757 -2.513542,0.16826 -0.974272,0.13354 -1.227552,0.0889 -1.227552,-0.21615 z m 6.879166,-0.30987 c 0,-0.25 0.686459,-0.35822 2.579687,-0.40668 1.418829,-0.0363 3.390887,-0.11013 4.382355,-0.16401 1.233794,-0.067 1.771989,-0.006 1.705448,0.19369 -0.124531,0.3736 -0.153085,0.37696 -4.771418,0.56176 -3.0817,0.12331 -3.896072,0.0847 -3.896072,-0.18476 z"
       id="path1434" /><path
       id="path1432"
       style="fill:#2f78bf;stroke-width:0.264583;fill-opacity:0.45282441"
       d="m -59.279985,410.7533 c -0.08817,-0.003 -0.201609,0.007 -0.344682,0.0263 -0.38251,0.0506 -2.289034,0.15298 -4.236434,0.22738 -1.9474,0.0745 -3.596295,0.1908 -3.664375,0.2589 -0.06808,0.0681 -0.04714,0.24793 0.04651,0.39946 0.109765,0.17758 1.36489,0.23471 3.532085,0.16071 1.849067,-0.0631 3.675458,-0.11957 4.058667,-0.12557 0.455469,-0.007 0.742206,-0.1846 0.827856,-0.51212 0.08086,-0.30903 0.04488,-0.42729 -0.219625,-0.43511 z m -11.557434,0.40979 c -2.023481,0.004 -3.373437,0.27739 -3.373437,0.68213 0,0.33661 0.47601,0.35267 4.167187,0.14263 0.337722,-0.0192 0.595313,-0.20532 0.595313,-0.43047 0,-0.30276 -0.329437,-0.39629 -1.389063,-0.39429 z" /><path
       style="fill:#2f78bf;stroke-width:0.264583;fill-opacity:0.45282441"
       d="m -73.691145,412.99495 c -0.370229,-0.69178 -0.327039,-0.77624 0.396935,-0.77624 0.36848,0 0.768443,0.2173 0.91951,0.49957 0.224538,0.41955 0.160959,0.51991 -0.396934,0.62656 -0.459774,0.0879 -0.74287,-0.0198 -0.919511,-0.34989 z m 3.448952,0.0353 c 0,-0.13572 -0.253857,-0.32733 -0.564126,-0.4258 -0.443148,-0.14065 -0.485704,-0.22872 -0.198438,-0.41066 0.201129,-0.12738 0.633579,-0.23343 0.961001,-0.23566 0.459693,-0.003 0.595313,0.14664 0.595313,0.65741 0,0.41158 -0.149932,0.66146 -0.396875,0.66146 -0.218281,0 -0.396875,-0.11104 -0.396875,-0.24675 z m 2.910416,-0.44189 c 0,-0.53435 0.13547,-0.638 0.859896,-0.65794 0.472943,-0.013 2.266762,-0.0695 3.986265,-0.12553 3.082761,-0.10044 3.125203,-0.0939 3.042709,0.47185 -0.07611,0.52194 -0.262687,0.5806 -2.068036,0.65025 -1.091407,0.0421 -2.847579,0.12585 -3.902605,0.1861 -1.878271,0.10727 -1.918229,0.0963 -1.918229,-0.52473 z"
       id="path1430" /><path
       style="fill:#2f78bf;stroke-width:0.264583;fill-opacity:0.45282441"
       d="m -73.305756,414.43496 c -0.06129,-0.20029 -0.157689,-0.5179 -0.214217,-0.70578 -0.136073,-0.45226 1.191903,-0.56288 1.471459,-0.12257 0.377563,0.59468 0.231568,0.92922 -0.463492,1.06209 -0.439579,0.084 -0.721955,7.9e-4 -0.79375,-0.23374 z m 3.260942,-0.50927 c -0.09902,-0.518 -0.02952,-0.65534 0.299884,-0.59261 0.235828,0.0449 0.466826,0.34833 0.513326,0.67427 0.120407,0.84395 -0.651079,0.76648 -0.81321,-0.0817 z m 3.732167,0.4703 c -0.410985,-0.0531 -0.753972,-0.29443 -0.829611,-0.58367 -0.161023,-0.61576 0.303416,-0.73392 3.117773,-0.79326 1.164167,-0.0246 2.684748,-0.0783 3.379073,-0.11948 1.176287,-0.0697 1.250564,-0.0369 1.088819,0.48203 -0.259025,0.83098 -0.48753,0.89719 -3.217072,0.93218 -1.379995,0.0177 -2.583161,0.0638 -2.673702,0.10246 -0.09054,0.0387 -0.479917,0.0296 -0.86528,-0.0203 z"
       id="path1426" /><path
       style="fill:#2f78bf;stroke-width:0.264583;fill-opacity:0.45282441"
       d="m -73.417193,415.15677 c 0,-0.65849 1.740506,-0.74959 1.908418,-0.0999 0.09929,0.38418 -0.0625,0.47631 -0.893585,0.50883 -0.793353,0.031 -1.014833,-0.0582 -1.014833,-0.40894 z m 3.439583,-0.15994 c 0,-0.21828 0.164015,-0.39687 0.36448,-0.39687 0.200461,0 0.512696,0.17859 0.693853,0.39687 0.278541,0.33562 0.222282,0.39688 -0.364479,0.39688 -0.44037,0 -0.693854,-0.14499 -0.693854,-0.39688 z m 2.910417,-0.11802 c 0,-0.44688 0.248417,-0.49767 2.579687,-0.52741 1.418828,-0.0181 3.085703,-0.0719 3.704167,-0.11964 0.921533,-0.0711 1.124479,-0.004 1.124479,0.36932 0,0.3852 -0.297985,0.4637 -1.918229,0.50535 -1.055026,0.0271 -2.721901,0.0983 -3.704167,0.15809 -1.606613,0.0979 -1.785937,0.0591 -1.785937,-0.38571 z"
       id="path1424" /><path
       style="fill:#2f78bf;stroke-width:0.264583;fill-opacity:0.45282441"
       d="m -73.417193,416.01864 c 0,-0.46714 1.530868,-0.73673 1.995212,-0.35136 0.669351,0.55552 0.424601,0.77499 -0.804587,0.72149 -0.72262,-0.0315 -1.190625,-0.17693 -1.190625,-0.37013 z m 3.439583,-0.22806 c 0,-0.52441 1.536578,-0.51862 2.233382,0.008 0.472827,0.35763 0.404577,0.38846 -0.859895,0.38846 -1.044488,0 -1.373487,-0.0951 -1.373487,-0.39688 z m 3.175,-0.03 c 0,-0.20176 0.148828,-0.38046 0.330729,-0.39713 0.688795,-0.0631 2.779763,-0.17828 4.564063,-0.25143 1.559673,-0.064 1.86559,-0.006 1.937628,0.36748 0.07234,0.37495 -0.172784,0.44754 -1.5875,0.47016 -0.920173,0.0147 -2.476717,0.0607 -3.458983,0.10224 -1.382405,0.0584 -1.785937,-0.007 -1.785937,-0.29132 z"
       id="path1422" /><path
       id="path1420"
       style="fill:#2f78bf;stroke-width:0.264583;fill-opacity:0.45282441"
       d="m -60.92898,415.96538 c -0.506274,-0.005 -1.257893,0.0229 -2.367814,0.0744 -1.855388,0.0861 -4.116116,0.14807 -5.023983,0.13797 -1.449309,-0.0161 -1.629602,0.0368 -1.477946,0.43202 0.156898,0.40887 0.58689,0.43464 4.693254,0.28008 2.486352,-0.0936 4.669483,-0.17076 4.851383,-0.17156 0.181901,-8.2e-4 0.33073,-0.1894 0.33073,-0.41858 0,-0.2285 -0.161834,-0.3264 -1.005624,-0.33435 z m -11.673706,0.3483 c -0.405902,0.002 -0.549837,0.16715 -0.549837,0.53485 0,0.26121 0.320361,0.35113 1.124479,0.31523 1.31351,-0.0586 1.402664,-0.50084 0.152446,-0.75654 -0.303785,-0.0621 -0.542587,-0.0946 -0.727088,-0.0935 z" /><path
       style="fill:#2f78bf;stroke-width:0.264583;fill-opacity:0.45282441"
       d="m -73.15261,417.61266 c 0,-0.20178 0.148828,-0.37603 0.330729,-0.38723 1.653871,-0.10184 2.050558,-0.0851 2.05054,0.0865 -1.1e-5,0.10914 0.02975,0.28773 0.06613,0.39687 0.03638,0.10914 -0.499401,0.21471 -1.190625,0.23458 -0.912445,0.0263 -1.256771,-0.0644 -1.256771,-0.33073 z m 3.711829,-0.074 c -0.214066,-0.14523 -0.333129,-0.31406 -0.264583,-0.37517 0.06855,-0.0611 2.295533,-0.1912 4.948862,-0.2891 4.279574,-0.15791 4.806597,-0.13205 4.668046,0.22901 -0.0859,0.22386 -0.351806,0.41101 -0.590899,0.41589 -0.239091,0.005 -2.220651,0.0707 -4.403463,0.14615 -2.441245,0.0845 -4.118552,0.0357 -4.357963,-0.12678 z"
       id="path1418" /><path
       style="fill:#2f78bf;stroke-width:0.264583;fill-opacity:0.45282441"
       d="m -72.888026,418.56871 c 0,-0.52581 0.150135,-0.60224 1.251677,-0.63722 0.991478,-0.0315 1.394156,0.19702 1.394156,0.79115 0,0.0609 -0.595313,0.11065 -1.322917,0.11065 -0.727604,0 -1.322916,-0.11906 -1.322916,-0.26458 z m 5.291666,-0.0214 c 0,-0.0893 -0.267891,-0.29155 -0.595312,-0.44947 -0.490027,-0.23633 -0.244364,-0.29403 1.389062,-0.32627 1.091406,-0.0215 3.036313,-0.0965 4.322016,-0.16648 2.150737,-0.11713 2.330302,-0.089 2.24586,0.35199 -0.07673,0.4007 -0.395004,0.48955 -1.940766,0.54178 -1.016942,0.0344 -2.652657,0.0958 -3.634923,0.13663 -0.982265,0.0408 -1.785937,10e-4 -1.785937,-0.0882 z"
       id="path1416" /><path
       style="fill:#2f78bf;stroke-width:0.264583;fill-opacity:0.45282441"
       d="m -72.232511,419.44855 -0.422986,-0.64556 1.243901,0.0813 c 0.997405,0.0652 1.286034,0.19595 1.4565,0.65983 0.196146,0.53375 0.132617,0.57742 -0.820915,0.56426 -0.794488,-0.011 -1.13134,-0.16357 -1.4565,-0.65982 z m 4.681318,-0.13258 c 0.06261,-0.44194 0.273238,-0.62663 0.748583,-0.65642 1.612418,-0.10105 6.123358,-0.14026 6.201741,-0.0539 0.04762,0.0524 -0.0053,0.33765 -0.117584,0.63377 -0.188288,0.49653 -0.465272,0.54435 -3.562014,0.61497 l -3.357851,0.0766 z"
       id="path1414" /><path
       style="fill:#2f78bf;stroke-width:0.264583;fill-opacity:0.45282441"
       d="m -71.413472,420.77267 c -0.210841,-0.54944 0.254365,-0.86204 1.002131,-0.67339 0.553275,0.13959 0.950738,0.51963 0.958847,0.91682 0.0021,0.10914 -0.399931,0.19844 -0.893683,0.19844 -0.594537,0 -0.955,-0.14924 -1.067295,-0.44187 z m 4.010332,-0.25415 c -0.118779,-0.62135 -0.09851,-0.62706 2.290866,-0.64513 1.325887,-0.01 2.736244,-0.0612 3.134127,-0.11379 0.856795,-0.11319 1.064985,0.11215 0.640262,0.69299 -0.237463,0.32474 -0.962901,0.45415 -3.127301,0.55783 -2.801196,0.13419 -2.818833,0.13124 -2.937954,-0.4919 z"
       id="path1412" /><path
       id="path1410"
       style="fill:#2f78bf;stroke-width:0.264583;fill-opacity:0.45282441"
       d="m -61.77544,420.90513 -2.315104,0.0724 c -1.273304,0.0399 -2.523463,0.12332 -2.778125,0.18552 -0.432443,0.10562 -0.638049,0.84661 -0.322461,1.1622 0.07734,0.0773 1.059604,0.10077 2.182813,0.0522 1.123206,-0.0486 2.310143,-0.0926 2.637565,-0.0966 0.461721,-0.006 0.595312,-0.16152 0.595312,-0.69195 z m -8.57157,0.30954 c -0.796034,0 -0.867819,0.0631 -0.753442,0.66146 0.109019,0.57026 0.268058,0.66146 1.153935,0.66146 1.116809,0 1.161639,-0.0486 0.753442,-0.81132 -0.186513,-0.3485 -0.554654,-0.5116 -1.153935,-0.5116 z" /><path
       id="path1408"
       style="fill:#2f78bf;stroke-width:0.264583;fill-opacity:0.45282441"
       d="m -61.850887,422.28128 -2.739885,0.062 -2.740401,0.062 v 0.70383 h -5.17e-4 c -3.6e-4,0.68516 0.03726,0.70163 1.389063,0.60823 0.763981,-0.0528 1.940571,-0.10203 2.614827,-0.10903 1.090916,-0.0114 1.239547,-0.0849 1.351339,-0.66973 z m -8.065141,0.25631 c -0.978381,0 -1.057347,0.0512 -0.919841,0.59531 0.08275,0.32742 0.244927,0.65868 0.360185,0.73588 0.281654,0.18875 2.352616,-0.0187 2.341976,-0.23461 -0.03029,-0.6142 -0.814639,-1.09658 -1.78232,-1.09658 z" /><path
       id="path1406"
       style="fill:#2f78bf;stroke-width:0.264583;fill-opacity:0.45282441"
       d="m -63.332967,423.61556 c -0.247141,10e-4 -0.542405,0.008 -0.893486,0.0181 -2.62391,0.0744 -3.105237,0.17582 -3.105237,0.65629 0,0.29064 0.402735,0.34428 1.918229,0.25528 1.055025,-0.062 2.173269,-0.12256 2.48512,-0.13436 0.311854,-0.0118 0.637667,-0.20551 0.723987,-0.43046 0.109568,-0.28537 -0.05767,-0.37113 -1.128613,-0.36484 z m -5.644617,0.27285 c -0.112741,2.6e-4 -0.234805,0.003 -0.36742,0.007 -1.159658,0.0379 -1.368899,0.11242 -1.128096,0.40256 0.173262,0.20877 0.825967,0.35605 1.577681,0.35605 1.03916,0 1.253305,-0.0763 1.128097,-0.40256 -0.100768,-0.26259 -0.421074,-0.36507 -1.210262,-0.36329 z" /><path
       style="fill:#2f78bf;stroke-width:0.264583;fill-opacity:0.45282441"
       d="m -69.724144,425.0376 c -0.272897,-0.32882 -0.04023,-0.38569 1.632368,-0.39899 1.072843,-0.009 2.754296,-0.0651 3.736562,-0.12562 0.984861,-0.0607 1.785937,-10e-4 1.785937,0.13219 0,0.42916 -0.350866,0.49064 -3.621169,0.63447 -2.611678,0.11487 -3.2752,0.0694 -3.533698,-0.24205 z"
       id="path1404" /><path
       style="fill:#2f78bf;stroke-width:0.264583;fill-opacity:0.45282441"
       d="m -68.868561,425.95993 c -0.175882,-0.28163 -0.289007,-0.51814 -0.251394,-0.52558 0.03761,-0.007 1.467006,-0.0758 3.176431,-0.15183 2.687513,-0.11958 3.087487,-0.0847 2.956105,0.25766 -0.207436,0.54057 -0.440883,0.5929 -3.01984,0.67684 -1.236046,0.0402 -2.313543,0.11406 -2.39444,0.16406 -0.08089,0.05 -0.290983,-0.13953 -0.466862,-0.42115 z"
       id="path1402" /><path
       id="path1400"
       style="fill:#2f78bf;stroke-width:0.264583;fill-opacity:0.45282441"
       d="m -63.512801,426.08053 c -0.112416,-0.002 -0.254136,0.007 -0.429948,0.0253 -0.481555,0.0495 -1.679073,0.10005 -2.661337,0.11265 -1.429783,0.0184 -1.785937,0.10504 -1.785937,0.4346 0,0.63807 5.114902,0.44884 5.237923,-0.19378 0.05115,-0.26752 -0.02346,-0.37307 -0.360701,-0.37879 z" /><path
       style="fill:#2f78bf;stroke-width:0.264583;fill-opacity:0.45282441"
       d="m -68.127704,427.69421 c -0.185798,-0.22388 -0.289764,-0.45509 -0.231037,-0.51382 0.09545,-0.0954 3.354424,-0.21364 4.532693,-0.16438 0.254662,0.0106 0.463021,0.19796 0.463021,0.41624 0,0.29443 -0.324413,0.40174 -1.256771,0.41573 -0.691223,0.0104 -1.687269,0.0716 -2.213432,0.13606 -0.652357,0.0799 -1.064117,-0.0123 -1.294474,-0.28983 z"
       id="path1398" /><path
       style="fill:#2f78bf;stroke-width:0.264583;fill-opacity:0.45282441"
       d="m -67.462573,429.15441 c -0.364625,-0.5776 -0.662438,-1.08232 -0.661808,-1.12159 5.29e-4,-0.0393 1.042429,-0.0986 2.315104,-0.1319 1.910842,-0.0499 2.226609,-0.004 1.81256,0.26459 -0.275767,0.17879 -1.019236,0.71073 -1.652151,1.18208 l -1.150752,0.857 z"
       id="path1396" /></g><g
     id="g2039"
     transform="translate(81.896333,-386.22171)"><g
       id="g11264"
       transform="translate(0.04568041,0.26087992)"><path
         id="path2029"
         style="fill:url(#linearGradient12727);fill-opacity:1;stroke:#000000;stroke-width:0;stroke-linecap:butt;stroke-linejoin:miter;stroke-dasharray:none;stroke-opacity:1"
         d="m -68.003774,394.49954 -1.830075,0.84111 -0.474102,1.3802 -0.134368,0.75946 -1.068094,1.27315 -0.823569,1.49521 2.029413,0.0431 0.895358,-1.08233 0.928333,-0.86738 1.121783,-0.62426 -0.02551,-1.69688 0.302654,-0.58756 z m 0.567672,-6.80246 -1.487149,1.34815 -0.587229,1.22791 -1.200296,2.0311 -0.63618,1.56361 1.145418,0.57732 1.188741,-0.56661 0.659448,-0.56483 0.159787,-0.60293 0.04411,-1.42444 0.564111,-1.09582 0.296724,-0.48716 z m -11.338446,13.61447 0.785521,-0.8161 0.740537,-0.19235 0.457306,-0.76608 1.338609,-0.82605 -0.04226,-1.71464 0.979792,-0.28477 0.759224,-1.90873 1.173062,-1.33474 0.875583,-1.03778 -0.01106,-1.66738 1.821207,-1.37408 0.05705,-1.28913 1.191836,-0.72348 1.264087,-1.41541 2.627947,2.74963 0.212188,0.8483 1.213022,0.74232 0.765165,2.57556 1.583531,0.74917 0.766368,0.43293 1.016744,1.09525 0.545933,0.12562 0.241475,0.47453 0.217598,0.18365 -0.03928,0.81446 0.430763,0.34859 1.030734,0.0692 0.146201,0.77042 0.207619,0.90368 -0.143492,0.92528 0.465521,0.50517 -0.09627,0.98306 z" /></g></g></svg>
