<?xml version="1.0" encoding="UTF-8" standalone="no"?>
<!-- Created with Inkscape (http://www.inkscape.org/) -->

<svg
   width="22.678534mm"
   height="15.350721mm"
   viewBox="0 0 22.678533 15.350721"
   version="1.1"
   id="svg5"
   xml:space="preserve"
   inkscape:version="1.2.2 (b0a8486541, 2022-12-01)"
   sodipodi:docname="yourtrace_icon_white.svg"
   xmlns:inkscape="http://www.inkscape.org/namespaces/inkscape"
   xmlns:sodipodi="http://sodipodi.sourceforge.net/DTD/sodipodi-0.dtd"
   xmlns="http://www.w3.org/2000/svg"
   xmlns:svg="http://www.w3.org/2000/svg"><sodipodi:namedview
     id="namedview7"
     pagecolor="#ffffff"
     bordercolor="#eeeeee"
     borderopacity="1"
     inkscape:showpageshadow="0"
     inkscape:pageopacity="0"
     inkscape:pagecheckerboard="0"
     inkscape:deskcolor="#505050"
     inkscape:document-units="mm"
     showgrid="false"
     inkscape:zoom="3.2073118"
     inkscape:cx="-63.604667"
     inkscape:cy="87.768205"
     inkscape:window-width="1920"
     inkscape:window-height="1080"
     inkscape:window-x="0"
     inkscape:window-y="0"
     inkscape:window-maximized="1"
     inkscape:current-layer="g2039" /><defs
     id="defs2" /><g
     id="g2039"
     transform="translate(78.728869,-386.22171)"><g
       id="g11264"
       transform="translate(0.04568041,0.26087992)"
       style="fill:#f9f9f9"><path
         id="path2029"
         style="fill:#f9f9f9;fill-opacity:1;stroke:#000000;stroke-width:0;stroke-linecap:butt;stroke-linejoin:miter;stroke-dasharray:none;stroke-opacity:1"
         d="m -68.003774,394.49954 -1.830075,0.84111 -0.474102,1.3802 -0.134368,0.75946 -1.068094,1.27315 -0.823569,1.49521 2.029413,0.0431 0.895358,-1.08233 0.928333,-0.86738 1.121783,-0.62426 -0.02551,-1.69688 0.302654,-0.58756 z m 0.567672,-6.80246 -1.487149,1.34815 -0.587229,1.22791 -1.200296,2.0311 -0.63618,1.56361 1.145418,0.57732 1.188741,-0.56661 0.659448,-0.56483 0.159787,-0.60293 0.04411,-1.42444 0.564111,-1.09582 0.296724,-0.48716 z m -11.338446,13.61447 0.785521,-0.8161 0.740537,-0.19235 0.457306,-0.76608 1.338609,-0.82605 -0.04226,-1.71464 0.979792,-0.28477 0.759224,-1.90873 1.173062,-1.33474 0.875583,-1.03778 -0.01106,-1.66738 1.821207,-1.37408 0.05705,-1.28913 1.191836,-0.72348 1.264087,-1.41541 2.627947,2.74963 0.212188,0.8483 1.213022,0.74232 0.765165,2.57556 1.583531,0.74917 0.766368,0.43293 1.016744,1.09525 0.545933,0.12562 0.241475,0.47453 0.217598,0.18365 -0.03928,0.81446 0.430763,0.34859 1.030734,0.0692 0.146201,0.77042 0.207619,0.90368 -0.143492,0.92528 0.465521,0.50517 -0.09627,0.98306 z" /></g></g></svg>
