<?xml version="1.0" encoding="UTF-8" standalone="no"?>
<!-- Created with Inkscape (http://www.inkscape.org/) -->

<svg
   width="22.678724mm"
   height="15.350481mm"
   viewBox="0 0 22.678724 15.350481"
   version="1.1"
   id="svg5"
   xml:space="preserve"
   inkscape:version="1.2.2 (b0a8486541, 2022-12-01)"
   sodipodi:docname="yourtrace.svg"
   xmlns:inkscape="http://www.inkscape.org/namespaces/inkscape"
   xmlns:sodipodi="http://sodipodi.sourceforge.net/DTD/sodipodi-0.dtd"
   xmlns:xlink="http://www.w3.org/1999/xlink"
   xmlns="http://www.w3.org/2000/svg"
   xmlns:svg="http://www.w3.org/2000/svg"><sodipodi:namedview
     id="namedview7"
     pagecolor="#ffffff"
     bordercolor="#eeeeee"
     borderopacity="1"
     inkscape:showpageshadow="0"
     inkscape:pageopacity="0"
     inkscape:pagecheckerboard="0"
     inkscape:deskcolor="#505050"
     inkscape:document-units="mm"
     showgrid="false"
     inkscape:zoom="0.85514979"
     inkscape:cx="384.14323"
     inkscape:cy="1341.8702"
     inkscape:window-width="1920"
     inkscape:window-height="1080"
     inkscape:window-x="0"
     inkscape:window-y="0"
     inkscape:window-maximized="1"
     inkscape:current-layer="g3748" /><defs
     id="defs2"><linearGradient
       inkscape:collect="always"
       id="linearGradient12725"><stop
         style="stop-color:#2275e8;stop-opacity:1;"
         offset="0.62830037"
         id="stop12721" /><stop
         style="stop-color:#145493;stop-opacity:1;"
         offset="1"
         id="stop12723" /></linearGradient><linearGradient
       inkscape:collect="always"
       xlink:href="#linearGradient12725"
       id="linearGradient12727"
       x1="-67.364471"
       y1="386.17499"
       x2="-67.334717"
       y2="401.01443"
       gradientUnits="userSpaceOnUse" /></defs><g
     id="g1394"
     transform="translate(78.40441,-388.24979)"><path
       id="path1476"
       style="fill:#1a6bbb;stroke-width:0.264583"
       d="m -75.487264,398.33959 c -0.0032,1.2e-4 -0.0048,7.9e-4 -0.0078,0.001 1.81e-4,0.002 3.22e-4,0.004 5.17e-4,0.006 0.0198,0.002 0.03326,0.003 0.05478,0.004 -0.0053,-0.01 -0.0278,-0.0121 -0.04754,-0.0114 z" /><path
       id="path1466"
       style="fill:#1760a9;stroke-width:0.264583"
       d="m -74.402576,401.33043 v 5.2e-4 c 0.0022,0.001 0.01031,0.003 0.01964,0.005 0.0027,-1.2e-4 0.0079,-3.6e-4 0.01189,-5.1e-4 -0.03074,0.002 -0.06137,0.004 -0.09198,0.006 0.09246,-3.3e-4 0.174925,-5.7e-4 0.271818,-10e-4 -0.05017,-0.004 -0.100539,-0.007 -0.150895,-0.009 -0.0413,-10e-4 -0.05748,-0.002 -0.06046,-10e-4 z" /><path
       id="path1462"
       style="fill:#165ea4;stroke-width:0.264583"
       d="m -56.637769,401.28754 c -0.06392,7.3e-4 -0.127766,0.002 -0.191203,0.008 -0.01062,10e-4 -0.02393,0.008 -0.03721,0.0155 0.083,-0.007 0.162564,-0.0149 0.22841,-0.0233 z m -1.140499,0.0667 c -0.0393,9.6e-4 -0.07841,0.004 -0.117305,0.008 0.07445,-0.002 0.152087,-0.003 0.222725,-0.006 -0.03518,-0.001 -0.07016,-0.003 -0.10542,-0.002 z" /><path
       id="path1460"
       style="fill:#165ca1;stroke-width:0.264583"
       d="m -51.400879,401.9645 c 0.0074,0.0359 0.01424,0.072 0.02119,0.108 0.08063,-0.0216 0.134151,-0.0428 0.152446,-0.0625 0.01652,-0.0178 -0.04611,-0.0325 -0.173633,-0.0455 z" /></g><g
     id="g2039"
     transform="translate(78.729089,-386.22171)"><g
       id="g11264"
       transform="translate(0.04568041,0.26087992)"><path
         id="path2029"
         style="fill:url(#linearGradient12727);fill-opacity:1;stroke:#000000;stroke-width:0;stroke-linecap:butt;stroke-linejoin:miter;stroke-dasharray:none;stroke-opacity:1"
         d="m -67.384246,385.96083 -1.264005,1.41542 -1.191659,0.72347 -0.05736,1.28932 -1.821077,1.37408 0.01137,1.66708 -0.875916,1.03767 -1.173055,1.3348 -0.759127,1.90893 -0.979785,0.28473 0.04237,1.71463 -1.338936,0.8263 -0.45682,0.76585 -0.74104,0.19223 -0.785482,0.81597 22.582601,-0.0537 0.09612,-0.98288 -0.465604,-0.5054 0.14366,-0.92501 -0.207739,-0.90382 -0.146245,-0.77049 -1.030428,-0.0692 -0.430981,-0.3483 0.03927,-0.81442 -0.217558,-0.18397 -0.241329,-0.47439 -0.54622,-0.12557 -1.016475,-1.09554 -0.766361,-0.43253 -1.583883,-0.74931 -0.764811,-2.57556 -1.213363,-0.74259 -0.211873,-0.84801 z m -0.05168,1.73633 0.147278,2.00608 -0.296623,0.48731 -0.564307,1.09605 -0.04393,1.42421 -0.15968,0.60306 -0.659391,0.56482 -1.189075,0.56638 -1.145149,-0.57723 0.636136,-1.56373 1.199927,-2.03088 0.587561,-1.22783 z m -0.567924,6.80217 0.921907,0.93379 -0.302823,0.58756 0.02584,1.69706 -1.121896,0.62425 -0.928625,0.86764 -0.895036,1.08211 -2.029333,-0.0429 0.823205,-1.49552 1.068152,-1.27279 0.134359,-0.75964 0.474389,-1.38028 z" /></g></g></svg>
